<?xml version="1.0" standalone="no"?><!DOCTYPE svg PUBLIC "-//W3C//DTD SVG 1.1//EN" "http://www.w3.org/Graphics/SVG/1.1/DTD/svg11.dtd"><svg t="1776732524741" class="icon" viewBox="0 0 1236 1024" version="1.1" xmlns="http://www.w3.org/2000/svg" p-id="4658" xmlns:xlink="http://www.w3.org/1999/xlink" width="77.25" height="64"><path d="M701.30239868 929.21377563c-23.30776977 0-41.95431518-9.32327271-60.60086059-23.30859375-18.64654541-18.64654541-32.63104247-41.95431518-32.63104248-69.92413329V742.7491455c-102.55517578 0-270.3732605 27.96981812-358.94311524 149.17153932-13.98532105 23.30776977-46.61636352 37.29309083-74.58618164 41.95431518H160.55670166C113.94033813 924.55172729 85.97052002 882.59741211 90.63256836 835.98104859c23.30776977-200.44830322 93.23272705-344.95861817 214.43362427-442.85174562 88.57067872-69.9241333 191.1258545-107.21722412 303.00430298-116.54049682V188.01895141c0-41.95431518 18.64654541-79.24740601 55.93963622-93.23272704C696.64117431 85.46377563 733.93344117 90.125 761.90325927 118.09481812l298.34225464 303.00430297c23.30859375 18.64654541 37.29309083 46.61553955 41.95513917 79.24658204 4.66122437 32.63186646-4.66204834 65.26290893-27.96981811 88.57067872-4.66204834 4.66204834-9.32327271 13.98449708-18.64654542 18.64654539l-289.01898194 293.68103029c-18.64654541 18.64654541-41.95513916 27.96981812-65.26290893 27.9698181z m-74.58618163-279.6965332h74.58618163v186.46380616l293.68103028-303.00347901 4.66204833-4.66204834c4.66122437-4.66122437 4.66122437-13.98449708 4.66122437-18.64654541 0-9.32327271-4.66122437-13.98449708-9.3232727-18.64654541l-4.66122437-4.66122437-293.68103028-298.34225464V365.15948487l-65.26290893 4.66204832c-97.89312745 0-191.1258545 32.63104247-270.37243652 93.23190309-93.23272705 74.58535766-153.83276367 195.78707886-172.47930909 354.28189086 116.53967285-144.51031494 321.65002441-167.81808471 438.18969728-167.81808471z" fill="#515151" p-id="4659"></path></svg>