<?xml version="1.0" standalone="no"?><!DOCTYPE svg PUBLIC "-//W3C//DTD SVG 1.1//EN" "http://www.w3.org/Graphics/SVG/1.1/DTD/svg11.dtd"><svg class="icon" width="64px" height="64.00px" viewBox="0 0 1024 1024" version="1.1" xmlns="http://www.w3.org/2000/svg"><path d="M931.4 542.6c-15.9 0-28.9 13-28.9 28.9v242.6c0 48.2-39.2 87.4-87.4 87.4H210.3c-48.2 0-87.4-39.2-87.4-87.4V209.3c0-48.2 39.2-87.4 87.4-87.4h302.4c15.9 0 28.9-13 28.9-28.9 0-15.9-13-28.9-28.9-28.9H210.3c-80 0.1-145.1 65.2-145.2 145.2v604.9c0.1 80 65.2 145.1 145.2 145.2h604.9c80-0.1 145.1-65.2 145.2-145.2V571.5c0-15.9-13-28.9-29-28.9zM869.8 203.6c-179.5 9.1-315.5 63.6-404.3 161.9-126 139.5-109 315.1-108.2 322.5 1.5 14.7 13.9 25.8 28.6 25.8 1 0 2 0 3.1-0.1 15.8-1.7 27.3-15.9 25.7-31.7 0-0.4-3.8-40.1 6.2-94.7 9-49.5 31.6-121.5 88-183.6 78.1-86.1 200.5-134 363.7-142.4l-82.7 110.2c-6.6 8.8-7.7 20.4-2.7 30.3 4.9 9.8 14.8 16 25.8 16h0.1c9.1 0 17.7-4.3 23.1-11.6l118.2-157.7 0.1-0.2c0.3-0.5 0.7-0.9 1-1.4 0.1-0.1 0.2-0.3 0.3-0.4l0.1-0.1c0.2-0.4 0.4-0.7 0.7-1.1l0.1-0.1c0.1-0.1 0.1-0.2 0.2-0.4 0.3-0.5 0.6-1.1 0.9-1.7l0.1-0.2 0.6-1.5 0.1-0.3 0.6-1.8v-0.2c0.2-0.5 0.3-1.1 0.4-1.6l0.1-0.4c0.1-0.6 0.2-1.2 0.3-1.7v-0.3c0.1-0.5 0.1-0.9 0.2-1.4 0-0.2 0-0.5 0.1-0.7v-1.2-1-1.2c0-0.3 0-0.6-0.1-0.8 0-0.3-0.1-0.6-0.1-0.9 0-0.4-0.1-0.7-0.2-1.1-0.1-0.4-0.1-0.8-0.2-1.2-0.1-0.3-0.1-0.5-0.2-0.8-0.1-0.3-0.2-0.7-0.2-1v-0.2c0-0.2-0.1-0.3-0.1-0.5-0.2-0.5-0.3-1-0.5-1.5-0.1-0.2-0.1-0.3-0.2-0.5v-0.1c-0.2-0.4-0.3-0.8-0.5-1.2l-0.2-0.4c-0.2-0.5-0.5-1.1-0.8-1.6l-0.1-0.3c-0.3-0.5-0.6-1-0.9-1.6l-0.1-0.1c-0.7-1.1-1.5-2.2-2.4-3.2L835.1 74.2c-10.4-12.1-28.7-13.5-40.8-3.2-12.1 10.4-13.5 28.7-3.2 40.8l78.7 91.8z" fill="currentColor" /></svg>
