<?xml version="1.0" standalone="no"?><!DOCTYPE svg PUBLIC "-//W3C//DTD SVG 1.1//EN" "http://www.w3.org/Graphics/SVG/1.1/DTD/svg11.dtd"><svg t="1776988953893" class="icon" viewBox="0 0 1024 1024" version="1.1" xmlns="http://www.w3.org/2000/svg" p-id="4860" xmlns:xlink="http://www.w3.org/1999/xlink" width="64" height="64"><path d="M531.968 11.776c9.728 1.024 18.944 1.536 28.672 2.56 62.464 6.144 122.368 25.6 176.64 57.344 107.008 62.464 177.152 153.088 209.92 271.872 10.24 35.84 14.336 72.704 14.848 110.08v113.152c0 18.432-4.096 34.816-12.288 51.2-3.072 6.656-4.608 13.824-6.656 20.48-46.592 156.16-178.688 275.968-340.48 308.736-11.264 2.048-22.528 4.096-33.792 5.632-4.096 0.512-5.12 2.048-6.144 5.632-13.312 34.304-47.104 55.808-83.456 53.76-36.352-2.048-67.072-26.624-76.8-61.952-10.752-41.472 11.264-84.48 52.224-99.328 40.448-14.848 86.016 3.072 104.96 41.984 2.048 4.096 4.096 5.12 8.704 4.608 135.68-22.528 235.008-94.72 297.984-215.552l2.048-4.096c-4.608 0.512-8.192 1.024-12.288 1.024-65.024 3.584-119.296-46.592-119.296-111.104V457.216c0-30.72 12.8-60.416 35.328-81.408s52.736-31.744 83.456-29.696c10.752 0.512 21.504 4.096 31.744 6.144 1.024 0 2.048 0.512 3.072 1.024C855.552 214.528 718.336 72.704 521.216 68.096c-202.24-5.12-350.208 136.192-389.12 284.672 7.68-2.048 15.36-4.096 23.552-5.632 58.88-10.752 118.784 30.72 128.512 89.088 1.024 7.168 2.048 14.848 2.048 22.528 0.512 35.84 0.512 72.192 0 108.544 0 53.76-36.864 98.304-89.6 109.568-61.44 13.312-123.392-28.672-133.12-89.6-1.024-6.144-1.536-12.8-2.048-18.944 0-38.912-1.024-77.824 0-116.736 3.584-142.336 62.464-258.048 175.104-346.624C294.4 58.88 360.448 31.232 433.152 18.432c17.408-3.072 35.328-4.096 52.736-6.144 2.048-0.512 3.584-0.512 5.12-1.024 13.824 0.512 27.136 0.512 40.96 0.512zM230.4 512v-54.784c0-14.848-5.632-29.696-16.384-39.936-10.752-10.752-25.088-16.384-39.936-16.384-31.232 0-55.808 24.576-56.32 56.32v109.568c0 15.872 6.656 31.232 18.432 41.984 11.776 10.752 27.648 15.872 43.008 14.336 29.184-3.072 50.688-26.624 50.688-55.296 0.512-18.944 0.512-37.376 0.512-55.808z m562.176 0v54.784c0 15.872 6.656 31.232 18.432 41.984 11.776 10.752 27.648 15.872 43.52 14.336 29.184-3.584 50.176-26.624 50.688-55.296V457.216c0-15.872-6.656-30.72-18.432-41.472s-27.136-15.872-43.008-14.336c-29.184 3.072-50.688 26.624-50.688 55.296-0.512 17.92-0.512 36.352-0.512 55.296z" fill="#333333" p-id="4861"></path><path d="M398.336 929.792a83.456 83.456 0 1 0 166.912 0 83.456 83.456 0 1 0-166.912 0z" fill="#333333" p-id="4862"></path></svg>