<?xml version="1.0" standalone="no"?><!DOCTYPE svg PUBLIC "-//W3C//DTD SVG 1.1//EN" "http://www.w3.org/Graphics/SVG/1.1/DTD/svg11.dtd"><svg class="icon" width="64px" height="64.00px" viewBox="0 0 1024 1024" version="1.1" xmlns="http://www.w3.org/2000/svg"><path d="M115.598222 214.129778h735.630222c22.300444 0 33.450667 11.946667 33.450667 35.669333 0 23.779556-11.150222 35.669333-33.450667 35.669333H115.598222c-22.300444 0-33.450667-11.889778-33.450666-35.669333 0-23.779556 11.150222-35.669333 33.450666-35.669333zM115.598222 737.28h735.630222c22.300444 0 33.450667 11.889778 33.450667 35.669333 0 23.779556-11.150222 35.669333-33.450667 35.669334H115.598222c-22.300444 0-33.450667-11.946667-33.450666-35.669334 0-23.779556 11.150222-35.669333 33.450666-35.669333zM115.598222 475.704889h735.630222c22.300444 0 33.450667 11.889778 33.450667 35.669333 0 23.779556-11.150222 35.669333-33.450667 35.669334H115.598222c-22.300444 0-33.450667-11.889778-33.450666-35.669334 0-23.779556 11.150222-35.669333 33.450666-35.669333z" fill="currentColor" /></svg>
